<?xml version="1.0" ?><svg height="309" version="1.1" width="338" xmlns="http://www.w3.org/2000/svg" xmlns:xlink="http://www.w3.org/1999/xlink"><g id="dp_dp001" transform="matrix(1,0,0,1,-108.144,-1186.58)"><path d="M 371.083,1321.14 C 371.083,1392.27 313.48,1449.93 242.425,1449.93 C 171.369,1449.93 113.767,1392.27 113.767,1321.14 C 113.767,1250.01 171.369,1192.36 242.425,1192.36 C 313.48,1192.36 371.083,1250.01 371.083,1321.14 Z " fill="none" fill-rule="evenodd" id="dp_path002" stroke="black" stroke-linecap="round" stroke-linejoin="round" stroke-width="12"/><path d="M 345.181,1403.21 L 437.191,1486.5" fill="none" fill-rule="evenodd" id="dp_path003" stroke="black" stroke-linecap="round" stroke-linejoin="round" stroke-width="17.3333"/><path d="M 242.425,1235.28 C 273.117,1235.28 297.999,1258.69 297.999,1287.56 C 297.999,1316.43 253.664,1407 242.425,1407 C 230.713,1407 186.852,1316.43 186.852,1287.56 C 186.852,1258.69 211.733,1235.28 242.425,1235.28 Z " fill="none" fill-rule="evenodd" id="dp_path004" stroke="black" stroke-linecap="round" stroke-linejoin="round" stroke-width="12"/><path d="M 242.427,1261.23 C 256.061,1261.23 267.113,1272.28 267.113,1285.92 C 267.113,1299.55 256.061,1310.61 242.427,1310.61 C 228.792,1310.61 217.74,1299.55 217.74,1285.92 C 217.74,1272.28 228.792,1261.23 242.427,1261.23 Z " fill="none" fill-rule="evenodd" id="dp_path005" stroke="black" stroke-linecap="round" stroke-linejoin="round" stroke-width="12"/></g></svg>